<svg width="32" height="32" viewBox="0 0 32 32" fill="none" xmlns="http://www.w3.org/2000/svg">
<path d="M16.3033 0.00277077C7.22454 -0.164082 -0.164081 7.2265 0.00277148 16.3033C0.161772 24.8579 7.1421 31.8382 15.6967 31.9972C24.7755 32.1641 32.1641 24.7755 31.9972 15.6967C31.8382 7.14209 24.8579 0.161771 16.3033 0.00277077ZM29.9263 15.2197C27.8043 15.6614 25.6647 15.7635 23.2188 15.4003L23.2149 15.3964C23.1796 8.94606 21.5346 4.29579 19.1555 2.27393C25.0601 3.70493 29.573 8.86166 29.9243 15.2197H29.9263ZM16.1109 18.1956C15.6319 18.1956 15.1628 18.1445 14.7192 18.0464C14.0007 17.8874 13.3883 17.6224 12.8975 17.2553C12.4833 16.9393 12.3479 16.7057 12.2851 16.5604C12.2242 16.423 12.0495 15.948 12.2596 15.5083C12.3106 15.3964 12.4264 15.1824 12.6129 14.994C12.9073 14.6976 13.1802 14.4895 13.6435 14.3756L13.6886 14.3658C13.8044 14.3364 13.9732 14.2952 14.1774 14.2952L14.1872 14.301C14.3658 14.301 14.5346 14.3325 14.6917 14.3992C15.2433 14.6249 15.4631 15.1648 15.5181 15.3277C15.5888 15.5259 15.6653 15.8439 15.6751 16.0304C15.6908 16.3072 15.6751 16.5977 15.6535 16.9687C15.6398 17.1866 15.6241 17.434 15.6182 17.7245V17.7637C15.6221 17.7892 15.6378 17.8599 15.6948 17.9306C15.7654 18.0111 15.8616 18.0385 15.9244 18.0385H16.4819L16.529 18.0327C16.5938 18.0111 16.6468 17.9718 16.6919 17.911C16.7273 17.856 16.743 17.7932 16.7371 17.7029C16.6507 17.0747 16.6507 16.4623 16.7371 15.8812C16.7881 15.524 16.8549 15.3002 16.9805 15.0803C17.0708 14.9312 17.275 14.5759 17.6734 14.407C17.8207 14.3462 17.9738 14.3148 18.1387 14.3148C18.3585 14.3148 18.5528 14.3658 18.7256 14.4129C19.0416 14.5032 19.8072 14.7839 20.0879 15.5358C20.135 15.6594 20.2351 15.9225 20.1841 16.2503C20.1389 16.5153 19.9799 16.7901 19.709 17.061C18.8767 17.8835 17.5753 18.0621 17.0826 18.1308C16.7607 18.176 16.4348 18.1975 16.1129 18.1975L16.1109 18.1956ZM15.5691 4.78653V12.9113C13.9497 13.0447 12.5835 13.7023 11.8846 14.6151C11.7629 14.7741 11.5941 14.8919 11.4017 14.9429C11.0837 15.0273 10.7618 15.1039 10.4379 15.1726C10.6087 10.3731 11.8297 6.25287 13.5453 4.0779C14.2166 3.22597 15.5848 3.70297 15.5711 4.78653H15.5691ZM12.1536 17.7048C12.9093 18.4606 14.1558 18.9906 15.5986 19.1044L15.2982 27.2076C15.2845 28.2931 13.9065 28.7367 13.2548 27.8671C11.6471 25.7236 10.5459 21.7702 10.4261 17.167C10.8403 17.2435 11.2506 17.3279 11.6589 17.4241C11.8473 17.4693 12.0162 17.5655 12.1536 17.7029V17.7048ZM16.7842 27.2252L16.7371 19.1044C18.1818 18.9945 19.4303 18.4684 20.1919 17.7127C20.3274 17.5792 20.4942 17.483 20.6787 17.4379C21.0831 17.3417 21.4914 17.2553 21.9036 17.1788C21.6877 21.831 20.4864 25.8099 18.812 27.9339C18.1406 28.7858 16.7724 28.3088 16.7862 27.2252H16.7842ZM20.455 14.5955C19.764 13.7102 18.4429 13.0663 16.8725 12.9191L17.0551 4.80616C17.0688 3.72064 18.4468 3.27701 19.0986 4.1466C20.7435 6.33924 21.8585 10.4281 21.935 15.1687C21.6033 15.098 21.2735 15.0175 20.9477 14.9312C20.7514 14.8782 20.5806 14.7584 20.4569 14.5994L20.455 14.5955ZM13.7868 2.02463C11.2094 3.88749 9.32099 8.65358 9.15022 15.4062C7.33839 15.6751 5.44805 15.7046 3.48704 15.4278C2.89423 15.3434 2.30926 15.2315 1.73019 15.0961C2.14634 8.4514 7.19117 2.97863 13.7868 2.02463ZM1.7557 17.2298C2.32104 17.1179 2.89226 17.0257 3.47134 16.955C5.4245 16.7175 7.31484 16.7391 9.1404 16.9707C9.23855 23.4406 10.9836 28.0477 13.4452 29.9243C7.22061 28.8683 2.31711 23.7174 1.75374 17.2318L1.7557 17.2298ZM18.8237 29.8046C21.2264 27.8613 22.9735 23.3248 23.1953 16.9805H23.1972C25.6254 16.6664 27.7651 16.7469 29.9047 17.1258C29.4179 23.3445 24.8756 28.4973 18.8237 29.8046Z" fill="#18181B"/>
</svg>
